<svg xmlns="http://www.w3.org/2000/svg" xmlns:xlink="http://www.w3.org/1999/xlink" viewBox="186.24999999999997 190.10915492957747 270.06380281690156 289.99999999999994" width="270.06" height="290"><defs><path d="M456.29 444.31l-.04.55-.04.54-.07.55-.07.54-.09.53-.1.54-.11.53-.12.52-.14.53-.15.52-.16.51-.18.51-.18.5-.2.5-.21.5-.23.49-.23.48-.25.48-.25.47-.27.47-.28.45-.29.46-.3.44-.32.44-.32.43-.33.42-.35.42-.35.41-.37.4-.37.39-.39.38-.4.37-.4.37-.42.35-.42.35-.44.33-.44.33-.45.31-16.39 11.13-.54.36-.53.34-.54.34-.55.33-.55.32-.55.32-.56.3-.57.3-.56.28-.57.28-.58.27-.58.26-.58.26-.58.24-.59.24-.59.22-.6.22-.6.21-.6.2-.6.19-.61.18-.61.17-.61.17-.61.15-.62.15-.62.13-.62.13-.62.12-.63.1-.62.1-.63.09-.63.08-.63.08-.64.06-.63.05-.64.04-.64.04-.63.02-.64.01-.64.01H236.57l-.54-.02-.54-.02-.54-.02-.54-.04-.54-.04-.54-.05-.54-.06-.53-.06-.54-.07-.53-.08-.53-.09-.53-.09-.53-.1-.53-.11-.52-.12-.53-.12-.52-.14-.52-.13-.52-.15-.51-.15-.52-.16-.51-.17-.51-.18-.5-.18-.51-.19-.5-.19-.5-.21-.49-.21-.5-.21-.49-.23-.49-.23-.48-.24-.48-.24-.48-.26-.47-.25-.48-.27-.46-.27-.47-.28-.46-.29-20.04-12.65-.48-.31-.47-.32-.46-.33-.45-.35-.44-.35-.43-.37-.41-.37-.41-.38-.4-.4-.39-.4-.38-.41-.36-.42-.36-.43-.34-.44-.33-.44-.32-.46-.31-.46-.3-.46-.28-.48-.28-.48-.26-.49-.25-.5-.24-.5-.22-.5-.21-.52-.2-.52-.19-.52-.17-.53-.16-.53-.15-.54-.13-.54-.12-.55-.11-.55-.09-.55-.08-.56-.06-.56-.05-.57-.04-.56-.02-.57-.01-.57V190.11l.67.46.66.47.67.48.65.47.65.48.65.48.64.48.64.49.64.49.63.5.62.49.63.5.61.51.62.5.6.51.61.51.6.52.59.52.59.52.59.52.58.53.58.53.57.54.57.53.57.54.56.55.56.54.55.55.54.56.55.55.54.56.53.56.53.57.53.57.52.57.51.57.52.58.5.58.51.59.5.58.49.59.49.6.49.59.48.6.48.6.47.61.47.61.47.61.46.61.45.62.45.62.45.63.44.62.44.64.44.63.42.64.43.64.42.64.42.64.41.65.41.66.4.65.4.66.39.66.39.67.39.66.38.67.38.68.37.67.37.68.37.69.36.68.35.69.35.7.35.69.34.7.34.7.33.71.33.71.33.71 52.3-6.23 2.13-.25 2.12-.23 2.13-.22 2.12-.21 2.13-.2 2.13-.18 2.13-.17 2.12-.16 2.13-.14 2.14-.14 2.13-.12 2.13-.11 2.13-.09 2.13-.08 2.14-.07 2.13-.06 2.13-.04 2.14-.04 2.13-.02h4.27l2.13.02 2.13.03 2.14.04 2.13.06 2.13.07 2.14.08 2.13.09 2.13.11 2.13.12 2.13.13 2.13.15 2.13.15 2.13.17 2.13.18 2.13.2 2.12.21 2.13.22 2.12.23 2.13.24 52.79 6.26.39-.77.39-.77.39-.76.4-.75.39-.75.4-.75.4-.74.4-.73.4-.74.41-.72.4-.73.41-.72.41-.71.41-.71.42-.7.41-.7.42-.7.42-.69.42-.69.43-.68.42-.68.43-.67.43-.67.43-.66.43-.66.44-.65.43-.65.44-.65.44-.64.45-.64.44-.63.45-.63.45-.62.45-.62.45-.61.45-.61.46-.6.45-.6.46-.6.47-.59.46-.59.47-.58.48-.57.48-.58.49-.57.49-.56.5-.56.5-.55.51-.55.52-.55.52-.54.53-.53.53-.53.54-.53.54-.52.55-.52.56-.52.56-.5.57-.51.57-.5.58-.49.58-.49.59-.49.59-.48.6-.48.61-.47.61-.47.62-.46.62-.46.63-.45.63-.45.64-.45.65-.44.65-.43.66-.43.66-.43.67-.42.67-.42.68-.41.68-.41v253.65l-.02.55zm-100.68-70.47l-1.86.57-1.87.53-1.87.51-1.88.47-1.88.44-1.9.41-1.89.37-1.9.35-1.91.31-1.91.27-1.91.25-1.91.21-1.92.18-1.92.15-1.92.11-1.93.08-1.92.05-1.92.02-1.93-.01-1.92-.05-1.92-.08-1.93-.12-1.91-.14-1.92-.18-1.92-.21-1.91-.25-1.91-.27-1.9-.31-1.91-.34-1.89-.38-1.89-.4-1.89-.44-1.88-.47-1.87-.51-1.87-.53-1.86-.57-1.85-.61-1.85-.63-74.7-26.41v81.38l.02.43.03.42.04.42.05.42.06.41.07.42.08.4.1.41.1.4.11.4.13.4.13.39.14.39.16.38.16.38.17.38.19.37.19.36.2.36.21.36.22.35.23.34.24.34.24.33.26.32.26.32.27.31.28.31.29.3.3.29.3.28.32.28.32.27.33.26.33.25.35.25.35.23.36.23.36.22 17.68 10.24.48.27.47.26.48.26.48.25.49.24.49.24.49.23.49.23.5.21.5.21.5.21.5.2.51.19.51.18.51.18.51.17.52.16.51.16.52.15.52.14.53.14.52.13.53.12.53.12.53.11.53.1.53.1.53.09.54.08.54.07.53.07.54.06.54.05.54.05.54.04.55.03.54.03.54.02.55.01h135.66l.62-.02.61-.02.61-.03.61-.04.61-.05.61-.06.6-.06.61-.08.6-.08.61-.09.6-.1.6-.11.59-.12.6-.12.59-.14.59-.14.59-.15.59-.16.58-.17.59-.17.58-.19.57-.19.58-.2.57-.21.57-.21.56-.23.56-.23.56-.24.56-.25.55-.26.55-.27.55-.27.54-.28.54-.29.53-.3.53-.3.53-.32.52-.32.52-.33 11.81-7.61.43-.29.42-.29.42-.31.4-.31.39-.32.39-.34.38-.34.36-.35.36-.36.35-.37.34-.37.33-.38.32-.39.3-.4.3-.41.29-.41.28-.42.27-.42.25-.43.25-.44.23-.44.23-.45.21-.46.2-.46.19-.46.18-.47.17-.48.15-.48.15-.48.13-.49.12-.49.1-.5.1-.49.08-.51.07-.5.06-.51.05-.51.03-.51.02-.52.01-.51v-79.08l-74.5 26.39-1.85.63-1.85.61zm3.12-50.98l.88.42.89.38.9.34.91.29.91.26.92.21.93.16.93.13.94.08.93.04h.93l.93-.04.93-.08.92-.12.91-.17.91-.2.9-.24.88-.28.88-.33.86-.36.85-.4.83-.43.81-.48.79-.52.78-.55.75-.59.73-.63.7-.66.68-.7L410 290l-38.73 15.58-25.29 10.74 12.75 6.54zm-98.25-3.27l.73.63.75.59.77.55.8.52.81.47.83.44.85.4.86.36.87.32.89.28.9.25.9.2.92.16.92.13.93.08.93.04h.93l.93-.04.93-.09.93-.12.93-.17.92-.21.92-.25.91-.29.9-.34.89-.38.88-.43 12.74-6.54-25.28-10.73-38.73-15.58 26.16 28.38.68.71.7.66z" id="a"/><path d="M313.85 387.35c3.37.25 5.48.41 6.32.47.99.07 1.98.07 2.97 0 .84-.06 2.95-.22 6.32-.47v61.82h-15.61v-61.82z" id="b"/><path d="M334.9 386.03c1.95-.23 3.17-.37 3.66-.42 2.76-.32 5.5-.77 8.22-1.35.49-.11 1.74-.37 3.72-.8v65.38h-15.6v-62.81z" id="c"/><path d="M356.31 381.28c3.36-1.03 5.46-1.68 6.3-1.94 1-.31 2.02-.61 3.03-.9.84-.24 2.93-.85 6.28-1.81v72.21h-15.61v-67.56z" id="d"/><path d="M377.73 374.31c3.28-1.11 5.33-1.8 6.15-2.08 1.11-.38 2.21-.74 3.32-1.09.82-.26 2.87-.91 6.14-1.96v79.66h-15.61v-74.53z" id="e"/><path d="M399.15 421.7v-54.76c3.22-1.19 5.23-1.92 6.03-2.22 1.18-.43 2.37-.86 3.56-1.27.81-.28 2.81-.97 6.02-2.07v74.12c0 2.34-1.17 4.52-3.13 5.81-1.58 1.05-2.89 1.87-3.93 2.48-1.88 1.1-4.73 2.39-8.55 3.88V421.7z" id="f"/><path d="M307.67 386.03c-1.96-.23-3.18-.37-3.66-.42-2.76-.32-5.51-.77-8.22-1.35-.5-.11-1.74-.37-3.73-.8v65.38h15.61v-62.81z" id="g"/><path d="M286.25 381.28c-3.36-1.03-5.45-1.68-6.29-1.94-1.01-.31-2.02-.61-3.04-.9-.83-.24-2.93-.85-6.28-1.81v72.21h15.61v-67.56z" id="h"/><path d="M264.83 374.31c-3.28-1.11-5.33-1.8-6.15-2.08-1.1-.38-2.21-.74-3.32-1.09-.82-.26-2.86-.91-6.14-1.96v79.66h15.61v-74.53z" id="i"/><path d="M243.41 421.7v-54.76c-3.21-1.19-5.22-1.92-6.03-2.22-1.18-.43-2.37-.86-3.56-1.27-.8-.28-2.81-.97-6.02-2.07v74.12c0 2.34 1.18 4.52 3.13 5.81 1.58 1.05 2.89 1.87 3.93 2.48 1.88 1.1 4.73 2.39 8.55 3.88V421.7z" id="j"/></defs><use xlink:href="#a" fill="#f8be12"/><use xlink:href="#b" fill="#f8be12"/><use xlink:href="#c" fill="#f8be12"/><use xlink:href="#d" fill="#f8be12"/><use xlink:href="#e" fill="#f8be12"/><use xlink:href="#f" fill="#f8be12"/><g><use xlink:href="#g" fill="#f8be12"/><use xlink:href="#h" fill="#f8be12"/><use xlink:href="#i" fill="#f8be12"/><use xlink:href="#j" fill="#f8be12"/></g></svg>